<svg version="1.1" width="350" height="475" xmlns="http://www.w3.org/2000/svg" xmlns:xlink="http://www.w3.org/1999/xlink" id="svg2027" overflow="hidden"><defs id="defs2031"></defs><g id="g2033" transform="matrix(3.77953,0,0,3.77953,-20,-20)"><rect x="31.75" y="5.29166" width="66.1458" height="21.1667" id="rect969" stroke-width="0.199999" fill="#00FFA0" fill-opacity="1"/><rect x="18.5208" y="54.2396" width="67.4688" height="21.1667" id="rect973" stroke-width="0.199999" fill="#00FFA0" fill-opacity="1"/><path d=" M 55.5625 91.2812 L 62.1771 130.969 L 68.7917 130.969 L 74.3045 97.8958 L 75.4062 97.8958 L 78.7135 97.8958 L 80.6979 97.8958 L 80.6979 124.354 L 75.4062 124.354 L 74.0833 124.354 L 74.0833 130.969 L 75.4062 130.969 L 82.0208 130.969 L 93.9271 130.969 L 93.9271 124.354 L 87.3125 124.354 L 87.3125 97.8958 L 93.9271 97.8958 L 93.9271 91.2812 L 82.0208 91.2812 L 78.7135 91.2812 L 75.4062 91.2812 L 72.099 91.2812 L 68.7917 91.2812 L 65.4844 111.125 L 62.1771 91.2812 Z" id="path1039" stroke-width="0.199999" fill="#00FFA0" fill-opacity="1"/><path d=" M 5.29167 103.187 L 5.29167 124.354 L 57.1056 124.354 L 53.5781 103.187 Z" id="rect1099" stroke-width="0.199999" fill="#00FFA0" fill-opacity="1"/><path d=" M 76.0315 54.2396 L 67.4688 87.3125 L 89.3331 87.3125 L 97.8958 54.2396 Z" id="rect1169" stroke-width="0.199999" fill="#00FFA0" fill-opacity="1"/><path d=" M 23.4446 5.29166 L 5.29167 75.4062 L 27.156 75.4062 L 45.3089 5.29166 Z" id="rect1174" stroke-width="0.199999" fill="#00FFA0" fill-opacity="1"/></g></svg>